<?xml version="1.0" encoding="utf-8" ?>
<svg xmlns="http://www.w3.org/2000/svg" xmlns:xlink="http://www.w3.org/1999/xlink" width="1024" height="1024">
	<path fill="#112029" d="M0 -0L1024 0L1024 1024L-0 1024L0 -0Z"/>
	<defs>
		<linearGradient id="gradient_0" gradientUnits="userSpaceOnUse" x1="501.02393" y1="254.91875" x2="521.44012" y2="765.68262">
			<stop offset="0" stop-color="#FF9705"/>
			<stop offset="1" stop-color="#1295AB"/>
		</linearGradient>
	</defs>
	<path fill="url(#gradient_0)" d="M423.672 313.77L512.209 254.309L656.416 349.701L724.576 395.174L724.395 570.992L724.476 627.31C716.286 633.987 706.841 639.524 698.022 645.353C691.875 649.417 685.512 654.303 679.015 657.689L559.689 736.693L519.095 763.892C517.491 764.876 515.801 765.881 513.934 766.25C511.65 766.701 509.236 766.457 507.157 765.376C499.427 761.356 492.019 755.335 484.721 750.497L436.895 718.92L356.605 665.399L326.532 645.364L298.525 626.945L298.728 562.905L298.655 396.766C302.053 393.43 307.559 390.633 311.605 387.902L356.484 358.546L405.053 325.935C411.105 321.954 417.274 317.13 423.672 313.77Z"/>
	<path fill="#112029" d="M430.122 324.745L511.691 270.763L614.874 338.127L638.779 354.129C643.482 357.329 648.425 361.204 653.477 363.774L654.031 364.275C658.982 368.651 665.992 372.311 671.597 375.943L697.218 393.127L711.498 402.761L712.077 579.868L711.944 607.589C711.934 611.693 712.507 616.757 711.702 620.749C701.627 629.579 688.618 635.141 678.421 643.744L518.367 750.078L518.071 712.896C517.29 718.14 517.773 724.163 517.755 729.5L517.5 729.75L517.5 705C516.791 704.71 517.1 704.899 516.419 704.287L515.897 703.803L514.965 704.828C514.217 704.434 513.891 704.306 513.015 704.332C512.101 704.359 512.115 704.266 511.334 703.836C510.524 704.057 509.96 704.182 509.306 704.746L508.92 705.128L508.174 704.882L508.287 706.418C507.254 706.33 506.653 706.265 505.637 706.536L505.301 740.016L504.91 663.746C503.893 672.195 504.747 681.892 504.719 690.451L504.517 749.116L334.553 636.446L334.059 636.157C330.717 633.349 326.678 630.941 323.045 628.493C319.024 625.784 314.964 622.713 310.593 620.605L310.081 620.366L309.968 547.717L310.394 404.031L429.334 325.385L430.122 324.745Z"/>
	<path fill="#D84D36" d="M694.65 464.511L695.211 464.848L695.074 478.989L689.067 475.25L683.721 471.581L694.65 464.511Z"/>
	<path fill="#32E7BE" d="M327.009 460.991L339.575 470.09L334.75 473.12L327.055 477.786L327.009 460.991Z"/>
	<path fill="#FEF29F" d="M338.912 449.195L338.975 448.52L339.625 448.875L339.755 447.5L340.25 446.755C340.034 445.6 340.203 446.087 339.725 445.08L339.324 444.25C338.382 441.828 336.586 440.189 334.847 438.27L336.75 437.584C339.113 436.737 340.909 436.14 342.787 434.356L343.177 433.968L354.193 441.419C353.309 443.661 352.178 444.777 350.377 446.317C349.926 446.702 348.596 447.561 348.324 448.029C347.531 449.391 347.53 453.512 347.362 455.251L338.912 449.195Z"/>
	<path fill="#D6EBC4" d="M354.193 441.419L367.401 451.346L357.954 457.942C356.822 458.688 355.69 459.651 354.362 459.967L347.362 455.251C347.53 453.512 347.531 449.391 348.324 448.029C348.596 447.561 349.926 446.702 350.377 446.317C352.178 444.777 353.309 443.661 354.193 441.419Z"/>
	<path fill="#FFF346" d="M338.912 449.195L327.189 440.739L327.104 423.378L343.177 433.968L342.787 434.356C340.909 436.14 339.113 436.737 336.75 437.584L334.847 438.27C336.586 440.189 338.382 441.828 339.324 444.25L339.725 445.08C340.203 446.087 340.034 445.6 340.25 446.755L339.755 447.5L339.625 448.875L338.975 448.52L338.912 449.195Z"/>
	<path fill="#F8A11E" d="M607.015 434.367L628.374 449.247L619.723 454.844L607.206 463.102L607.015 434.367Z"/>
	<path fill="#DBB43D" d="M415.935 434.596C416.881 436.085 416.46 440.422 416.463 442.335L416.446 464.885L403.273 455.793L393.942 449.293L415.935 434.596Z"/>
	<path fill="#FFF346" d="M415.361 355.396L416.139 356L416.081 389.01C410.699 386.367 405.572 382.728 400.567 379.42L390.277 372.312L415.361 355.396Z"/>
	<path fill="#FFF346" d="M607.109 354.053L634.023 372.009L623.452 379.217L607.27 389.067C606.468 386.02 607.036 381.621 607.043 378.366L607.109 354.053Z"/>
	<path fill="#D6EBC4" d="M695.323 422.895C695.724 425.293 695.503 427.968 695.505 430.406L695.509 444.057C686.296 448.766 677.347 455.722 668.68 461.4C665.799 460.148 662.853 457.608 660.234 455.804L653.982 451.38C655.501 448.941 661.173 445.952 663.736 444.199L695.323 422.895Z"/>
	<path fill="#F5643A" d="M361.992 390.492C366.271 387.848 370.761 384.498 375.402 382.633L406.166 403.387C409.689 405.747 415.478 408.631 418.164 411.738L406.483 419.888C399.647 416.442 393.18 411.202 386.775 406.971C378.625 401.589 369.618 396.542 361.992 390.492Z"/>
	<path fill="#3DBFAE" d="M694.449 546.877L695.002 547.184C696.125 549.498 695.41 555.609 695.411 558.339L695.399 590.762L676.749 578.109L663.169 568.587C665.316 565.677 669.856 563.279 672.829 561.25L694.449 546.877Z"/>
	<path fill="#32E7BE" d="M326.998 544.922L359.748 567.615L347.66 576.452L327.16 589.831L326.998 544.922Z"/>
	<path fill="#CEF3F3" d="M380.688 461.53L416.898 485.882L416.911 503.183L409.25 498.439L367.853 470.27L380.688 461.53Z"/>
	<path fill="#CEF3F3" d="M640.471 461.424L654.828 470.705L615.61 497.583C612.804 499.413 609.975 501.488 606.937 502.901L606.81 484.721C610.353 481.604 614.518 478.978 618.408 476.303L640.471 461.424Z"/>
	<path fill="#1F8C86" d="M607.385 539.179C612.167 541.932 616.48 545.427 621.073 548.477L634.002 556.906C636.553 558.519 640.204 560.227 642.032 562.594C638.265 565.104 608.586 585.69 607.434 585.714L607.385 539.179Z"/>
	<path fill="#F8A11E" d="M519.969 392.598L519.98 374.721L575.578 411.971L561.815 421.433C559.68 418.317 556.288 416.14 553.308 413.865C546.151 408.398 538.754 403.52 531.12 398.75C527.695 396.61 523.934 393.446 519.969 392.598Z"/>
	<path fill="#F8A11E" d="M460.956 420.876L447.877 412.034L503.963 374.229L503.998 391.919C500.776 393.223 497.926 395.531 495.004 397.412L475.848 410.34C471.321 413.454 464.129 416.463 460.956 420.876Z"/>
	<path fill="#3DBFAE" d="M607.338 536.443L607.389 523.522L669.485 481.668L678.457 488.345L636.876 517.356C627.345 523.803 617.498 531.085 607.338 536.443Z"/>
	<path fill="#B74336" d="M433.062 384.376L434 386.515C438.013 385.111 441.984 381.802 445.594 379.505L478.25 357.433L495.09 346.101C497.37 344.665 500.007 342.651 502.526 341.735L503.25 341.485C503.262 340.489 503.201 339.485 503.59 338.549L503.817 338.127L503.904 354.006L503.329 354.326L433.169 400.631L433.062 384.376Z"/>
	<path fill="#B74336" d="M520.165 338.712L520.75 341.652L521.446 341.897C525.657 343.472 530.742 348.053 534.549 350.576L556.658 364.89L583.257 382.342C585.055 383.444 588.404 386.149 590.474 386.184L590.389 400.139L520.45 354.632C519.688 349.692 520.199 343.758 520.165 338.712Z"/>
	<path fill="#B74336" d="M590.113 423.545C590.764 429.66 590.377 435.996 590.373 442.148L590.389 475.827L519.993 524.168L519.971 509.679L589.854 463.529L589.904 441.427L590.113 423.545Z"/>
	<path fill="#B74336" d="M433.519 464.911L503.958 509.628L504.005 525.357L433.51 478.52L433.519 464.911Z"/>
	<path fill="#3DBFAE" d="M342.021 489.356C346.113 486.586 350.285 483.365 354.692 481.135L416.461 524.242L416.463 540.72L384.315 519.048L365.882 506.131C358.141 500.885 348.748 495.792 342.021 489.356Z"/>
	<path fill="#F5643A" d="M433.04 358.016L432.962 343.08C441.089 337.665 500.43 297.091 503.872 296.654L503.925 312.416C497.515 315.691 491.488 320.48 485.5 324.522L451.245 347.349L438.849 355.233C437.122 356.269 435.035 357.779 433.04 358.016Z"/>
	<path fill="#F5643A" d="M433.53 439.856L433.642 423.981C447.183 431.379 459.838 440.86 472.746 449.345L492.284 462.332C496.184 464.923 500.514 467.381 504.006 470.477L503.957 485.606L433.53 439.856Z"/>
	<path fill="#F5643A" d="M520.078 312.031L520.036 301.31C520.031 299.697 519.784 297.778 520.259 296.235L590.506 342.436L590.474 358.037C587.913 357.611 584.167 354.514 581.865 353.118L520.078 312.031Z"/>
	<path fill="#F5643A" d="M519.966 486.515L519.971 469.848L590.113 423.545L589.904 441.427L519.966 486.515Z"/>
	<path fill="#DBB43D" d="M519.969 392.598C523.934 393.446 527.695 396.61 531.12 398.75C538.754 403.52 546.151 408.398 553.308 413.865C556.288 416.14 559.68 418.317 561.815 421.433L520.274 448.971C519.815 447.397 520.018 445.46 520.018 443.813L520.008 433.174L519.969 392.598Z"/>
	<path fill="#DBB43D" d="M460.956 420.876C464.129 416.463 471.321 413.454 475.848 410.34L495.004 397.412C497.926 395.531 500.776 393.223 503.998 391.919L504.033 449.388L460.956 420.876Z"/>
	<defs>
		<linearGradient id="gradient_1" gradientUnits="userSpaceOnUse" x1="504.91605" y1="739.49286" x2="518.42816" y2="580.57892">
			<stop offset="0" stop-color="#25BDB3"/>
			<stop offset="1" stop-color="#98E7EE"/>
		</linearGradient>
	</defs>
	<path fill="url(#gradient_1)" d="M505.011 599.74C505.312 601.297 505.307 602.384 506.336 603.614C508.393 603.58 511.178 604.284 512.998 604.069L517.25 603.755L517.255 601.75L517.382 597.5C517.39 595.714 517.137 593.861 517.31 592.093C517.55 589.647 517.428 586.961 517.378 584.5C517.346 582.959 517.479 581.777 517.816 580.262L517.939 579.726L517.991 695.671L518.071 712.896C517.29 718.14 517.773 724.163 517.755 729.5L517.5 729.75L517.5 705C516.791 704.71 517.1 704.899 516.419 704.287L515.897 703.803L514.965 704.828C514.217 704.434 513.891 704.306 513.015 704.332C512.101 704.359 512.115 704.266 511.334 703.836C510.524 704.057 509.96 704.182 509.306 704.746L508.92 705.128L508.174 704.882L508.287 706.418C507.254 706.33 506.653 706.265 505.637 706.536L505.301 740.016L504.91 663.746L505.011 599.74Z"/>
	<path fill="#D84D36" d="M406.483 419.888L380.845 437.871L380.268 438.354L336.13 408.118C337.447 406.207 340.922 404.433 342.913 403.096L361.992 390.492C369.618 396.542 378.625 401.589 386.775 406.971C393.18 411.202 399.647 416.442 406.483 419.888Z"/>
	<path fill="#D84D36" d="M589.904 441.427L589.854 463.529L519.971 509.679L519.966 486.515L589.904 441.427Z"/>
	<path fill="#D84D36" d="M433.53 439.856L503.957 485.606L503.958 509.628L433.519 464.911L433.53 439.856Z"/>
	<path fill="#D84D36" d="M520.078 312.031L581.865 353.118C584.167 354.514 587.913 357.611 590.474 358.037L590.474 386.184C588.404 386.149 585.055 383.444 583.257 382.342L556.658 364.89L534.549 350.576C530.742 348.053 525.657 343.472 521.446 341.897L520.75 341.652L520.165 338.712L520.078 312.031Z"/>
	<path fill="#D84D36" d="M433.04 358.016C435.035 357.779 437.122 356.269 438.849 355.233L451.245 347.349L485.5 324.522C491.488 320.48 497.515 315.691 503.925 312.416L503.817 338.127L503.59 338.549C503.201 339.485 503.262 340.489 503.25 341.485L502.526 341.735C500.007 342.651 497.37 344.665 495.09 346.101L478.25 357.433L445.594 379.505C441.984 381.802 438.013 385.111 434 386.515L433.062 384.376L433.04 358.016Z"/>
	<path fill="#D84D36" d="M649.126 381.747L687.857 407.651C683.785 411.197 678.653 414.138 674.162 417.183L642.803 438.111L623.925 425.943C617.019 421.597 609.983 417.497 603.706 412.243L649.126 381.747Z"/>
	<defs>
		<linearGradient id="gradient_2" gradientUnits="userSpaceOnUse" x1="528.97772" y1="601.30341" x2="507.91379" y2="486.44495">
			<stop offset="0" stop-color="#95E3E1"/>
			<stop offset="1" stop-color="#DCF2EC"/>
		</linearGradient>
	</defs>
	<path fill="url(#gradient_2)" d="M505.011 599.74L504.875 562.262C502.83 560.538 500.143 559.159 497.888 557.696L484.507 548.826L452.968 528.002C446.386 523.638 439.865 518.964 433.037 515.003L433.389 498.287L512.028 550.5C519.055 544.165 527.991 539.09 535.756 533.634L590.477 495.906C590.489 498.036 591.012 513.267 590.578 513.961C590.451 514.166 588.688 515.055 588.379 515.241L581.68 519.659L532.427 554.088C530.971 555.08 518.213 563.069 518.009 563.494C517.792 563.947 518.013 566.12 518.014 566.811L517.939 579.726L517.816 580.262C517.479 581.777 517.346 582.959 517.378 584.5C517.428 586.961 517.55 589.647 517.31 592.093C517.137 593.861 517.39 595.714 517.382 597.5L517.255 601.75L517.25 603.755L512.998 604.069C511.178 604.284 508.393 603.58 506.336 603.614C505.307 602.384 505.312 601.297 505.011 599.74Z"/>
	<path fill="#1E7B77" d="M678.457 488.345L695.008 499.199L695.015 526.645L642.032 562.594C640.204 560.227 636.553 558.519 634.002 556.906L621.073 548.477C616.48 545.427 612.167 541.932 607.385 539.179L607.338 536.443C617.498 531.085 627.345 523.803 636.876 517.356L678.457 488.345Z"/>
	<path fill="#1F8C86" d="M433.014 617.89L488.454 655.443L488.6 718.995L433.454 682.117L433.014 617.89Z"/>
	<path fill="#1F8C86" d="M433.424 534.748L488.508 571.094L488.57 635.778L433.27 598.499L433.424 534.748Z"/>
	<path fill="#1F8C86" d="M590.838 533.426C591.244 535.305 591.027 537.492 591.028 539.411L591.038 550.832L591.067 596.867L534.648 635.831L534.62 572.026L590.838 533.426Z"/>
	<path fill="#1F8C86" d="M590.416 617.474L590.975 618L591.303 681.575L535.302 719.369C534.754 719.334 535.095 719.417 534.45 718.75L534.62 656.028L590.416 617.474Z"/>
	<path fill="#1E7B77" d="M416.463 540.72L416.71 586.976L327.565 524.53L327.51 499.574L342.021 489.356C348.748 495.792 358.141 500.885 365.882 506.131L384.315 519.048L416.463 540.72Z"/>
	<path fill="#1F8C86" d="M647.574 578.596C652.62 580.866 657.681 585.13 662.316 588.259L681.518 601.348C686.284 604.6 691.186 607.745 695.474 611.624C694.021 613.686 690.711 615.561 688.634 617L670.561 629.013L637.212 651.203L607.933 670.623L607.481 605.528L647.574 578.596Z"/>
	<path fill="#1F8C86" d="M373.778 578.504L416.575 607.024L416.625 670.959C413.047 669.197 409.634 666.706 406.306 664.511L388.781 652.779L326.423 611.02C332.509 605.395 340.759 600.837 347.691 596.253L373.778 578.504Z"/>
</svg>
